<?xml version="1.0" standalone="no"?>
<!DOCTYPE svg PUBLIC "-//W3C//DTD SVG 20010904//EN"
 "http://www.w3.org/TR/2001/REC-SVG-20010904/DTD/svg10.dtd">
<svg version="1.0" xmlns="http://www.w3.org/2000/svg"
 width="600.000000pt" height="600.000000pt" viewBox="0 0 600.000000 600.000000"
 preserveAspectRatio="xMidYMid meet">
<metadata>
Created by potrace 1.16, written by Peter Selinger 2001-2019
</metadata>
<g transform="translate(0.000000,600.000000) scale(0.100000,-0.100000)"
fill="#000000" stroke="none">
<path d="M4082 4690 c-90 -61 -163 -105 -195 -115 -29 -8 -137 -31 -242 -51
-491 -91 -702 -180 -889 -374 l-67 -69 -52 41 c-77 61 -230 129 -422 188 -93
28 -188 60 -210 70 -22 10 -87 62 -143 114 -89 82 -109 96 -138 96 -54 0 -60
-20 -72 -240 -5 -107 -7 -226 -5 -264 5 -65 4 -69 -13 -62 -102 40 -174 51
-319 51 -130 0 -159 -3 -220 -23 -196 -65 -357 -214 -449 -414 -43 -92 -63
-162 -91 -313 l-22 -120 -51 -11 c-66 -15 -132 -54 -171 -101 -104 -126 -39
-302 144 -392 l62 -31 7 -122 c9 -165 33 -363 57 -473 10 -49 19 -90 19 -92 0
-2 -27 -3 -60 -3 -33 0 -60 -2 -60 -5 0 -15 55 -147 77 -185 40 -68 159 -186
238 -235 145 -90 313 -117 427 -70 17 7 18 -7 18 -199 l0 -206 1259 0 c1405 0
1347 -3 1495 69 131 63 229 171 277 303 15 41 26 56 38 53 34 -6 139 17 199
45 39 18 83 50 117 84 l53 55 30 -37 c41 -53 123 -113 222 -166 170 -90 368
-124 530 -92 201 41 345 157 379 305 l9 41 -54 0 c-60 0 -59 -1 -69 71 -14
104 -118 199 -218 199 -43 0 -53 5 -93 43 -55 51 -65 91 -89 334 -28 281 -52
389 -122 527 -68 136 -224 255 -356 272 -36 5 -47 10 -43 21 14 37 27 205 21
273 -16 178 -54 284 -139 391 -91 115 -255 209 -394 225 -51 5 -62 10 -58 23
32 103 60 302 72 504 6 114 5 129 -11 147 -32 36 -63 24 -213 -80z m-17 -329
c-35 -184 -91 -332 -169 -450 -51 -76 -160 -185 -231 -230 -42 -27 -58 -31
-114 -31 l-66 0 65 36 c152 85 257 197 335 358 50 102 101 276 82 276 -33 -1
-57 -14 -57 -32 0 -30 -58 -198 -82 -236 -17 -28 -26 -33 -50 -30 -16 3 -25 1
-21 -3 4 -4 18 -9 31 -11 22 -3 21 -4 -17 -63 -67 -102 -227 -243 -297 -261
-11 -3 -25 -18 -31 -35 -12 -32 -34 -37 -53 -14 -16 19 -79 20 -86 1 -9 -25
-36 -28 -58 -7 -18 17 -38 21 -114 23 l-93 3 53 62 c66 77 171 161 252 202
l61 31 -40 0 c-143 0 -327 -92 -469 -234 -55 -56 -56 -56 -116 -56 -69 0 -69
-1 -39 91 76 231 239 386 502 478 120 42 209 64 434 105 185 35 321 71 373
100 14 8 26 13 28 12 1 -2 -5 -40 -13 -85z m-1935 -226 c279 -85 404 -153 485
-263 35 -48 67 -121 78 -179 l7 -33 -57 0 c-55 0 -57 1 -119 60 -69 66 -166
119 -237 127 l-42 5 45 -29 c45 -29 150 -139 150 -156 0 -5 -32 -7 -70 -5 -39
2 -70 -1 -70 -6 0 -11 -67 2 -102 20 -26 14 -28 13 -28 -5 0 -29 -32 -44 -56
-26 -11 8 -28 15 -40 15 -36 0 -121 96 -165 184 -46 94 -69 201 -69 321 l0 83
53 -28 c28 -16 135 -54 237 -85z m2235 -256 c100 -38 209 -152 241 -252 9 -30
18 -104 21 -177 4 -105 2 -139 -16 -214 -27 -112 -78 -243 -142 -362 -45 -85
-93 -194 -85 -194 2 0 21 28 42 63 50 81 158 188 225 223 78 41 173 41 248 -1
138 -76 192 -216 231 -594 32 -316 49 -372 144 -458 66 -60 115 -85 181 -91
57 -5 75 -16 75 -44 0 -14 -17 -27 -57 -46 -51 -24 -69 -27 -153 -26 -69 1
-111 8 -155 23 -80 29 -187 93 -221 133 -60 72 -107 223 -144 464 -37 248 -64
329 -115 352 -34 15 -40 15 -81 -4 -93 -44 -156 -260 -169 -579 -8 -188 -12
-209 -42 -239 -34 -35 -107 -36 -178 -2 -116 54 -115 49 -146 745 -15 351 -7
951 15 1084 16 101 41 172 68 194 22 19 88 32 128 26 19 -3 58 -14 85 -24z
m-2889 -9 c217 -56 424 -173 424 -240 0 -13 -7 -32 -17 -42 -33 -37 -193 -20
-396 43 -55 16 -121 33 -148 36 -177 21 -289 -131 -304 -417 -3 -52 -7 -116
-10 -142 l-4 -48 47 0 c76 0 225 -28 301 -56 72 -27 115 -63 109 -93 -4 -22
-102 -45 -283 -66 -83 -10 -156 -19 -164 -22 -12 -3 -13 -30 -8 -161 10 -247
50 -532 103 -734 28 -106 24 -133 -20 -144 -76 -19 -235 86 -288 189 -49 97
-84 316 -101 636 l-12 214 -68 19 c-86 23 -139 50 -166 84 -40 50 -6 72 146
94 77 11 82 14 87 39 3 14 17 96 32 181 44 261 94 379 209 495 111 112 209
153 366 154 55 1 114 -6 165 -19z m2266 -452 c31 -12 62 -53 54 -73 -3 -8 -36
-30 -74 -49 -114 -58 -162 -136 -162 -266 0 -57 5 -78 35 -136 35 -70 149
-208 219 -266 64 -53 164 -178 201 -251 44 -87 48 -161 12 -220 -106 -175
-580 -236 -837 -107 -30 15 -68 40 -84 55 l-28 26 -27 -24 c-185 -174 -506
-166 -679 17 -62 65 -94 121 -128 221 -23 67 -28 102 -32 216 -7 205 22 326
115 484 60 103 131 172 224 218 94 46 171 66 279 74 107 7 154 -6 212 -57 87
-76 118 -219 74 -348 -24 -70 -105 -191 -161 -240 -84 -74 -241 -142 -328
-142 l-40 0 7 -70 c17 -187 100 -276 234 -250 107 20 193 83 211 156 26 101
82 169 182 220 42 21 56 24 75 15 31 -14 30 -40 -2 -109 -33 -70 -27 -108 28
-168 60 -65 133 -97 235 -102 179 -10 275 64 214 164 -10 17 -79 79 -152 139
-188 152 -318 286 -359 369 -32 64 -32 68 -28 173 6 150 39 221 128 278 97 61
290 88 382 53z m-2133 -117 c60 -31 163 -141 202 -215 l33 -63 80 61 c133 101
274 154 370 140 50 -8 66 -20 66 -48 0 -59 -84 -129 -191 -160 -75 -21 -148
-87 -189 -169 -38 -78 -57 -200 -69 -453 -11 -207 -17 -238 -60 -305 -63 -99
-196 -108 -265 -17 -54 72 -58 111 -66 533 -8 409 -14 469 -56 517 -27 29 -76
48 -127 48 -115 0 -69 102 65 146 59 19 153 12 207 -15z m-335 -728 c18 -234
29 -321 53 -397 25 -80 43 -236 26 -236 -29 1 -46 53 -83 260 -21 119 -50 361
-50 418 0 27 4 32 24 32 23 0 25 -4 30 -77z m3440 -705 l35 -81 -70 5 c-38 3
-72 7 -74 10 -3 2 0 19 5 38 5 18 12 91 16 162 l7 129 23 -91 c13 -50 39 -127
58 -172z m-2205 -43 c142 -78 176 -264 68 -378 l-39 -42 26 37 c74 104 73 221
-1 307 -49 58 -105 81 -189 80 l-69 -2 67 -7 c84 -8 151 -47 190 -110 52 -85
46 -197 -15 -267 l-29 -33 -158 0 -158 0 -35 41 c-86 100 -70 253 35 343 83
72 209 84 307 31z m650 19 c67 -19 144 -92 160 -150 25 -91 4 -203 -50 -260
-19 -20 -31 -22 -198 -23 l-178 -2 -28 33 c-42 49 -55 90 -55 165 0 57 5 76
30 120 63 110 189 156 319 117z m-1199 -54 l0 -60 -130 0 -130 0 0 -45 0 -45
115 0 115 0 0 -55 0 -55 -115 0 -115 0 -1 -37 c-1 -21 -5 -49 -9 -63 -6 -19
-8 -9 -9 38 -1 59 -12 80 -25 46 -3 -9 -6 -36 -6 -60 l0 -44 -39 0 -38 0 -6
68 c-4 37 -7 136 -7 220 l0 152 200 0 200 0 0 -60z m1847 45 c66 -20 125 -64
148 -111 24 -49 31 -150 15 -199 -13 -39 -74 -115 -93 -115 -6 0 3 15 21 33
88 91 82 246 -12 324 -53 43 -98 53 -232 51 l-119 -1 125 -6 c113 -6 130 -9
173 -34 64 -38 97 -90 104 -165 7 -71 -8 -121 -49 -168 l-30 -34 -169 0 -169
0 0 93 c0 50 -3 149 -7 220 l-6 127 125 0 c81 0 142 -5 175 -15z"/>
<path d="M1924 4058 c4 -35 18 -94 31 -132 36 -104 134 -236 175 -236 28 0 25
7 -20 51 -75 73 -118 164 -141 298 -11 61 -21 80 -43 81 -5 0 -5 -28 -2 -62z"/>
<path d="M4336 3708 c-24 -37 -36 -141 -36 -309 0 -148 13 -373 27 -469 l6
-45 14 45 c26 87 74 301 89 402 17 114 13 213 -12 299 -28 95 -59 121 -88 77z"/>
<path d="M2799 3105 c-84 -44 -172 -160 -204 -267 -26 -90 -12 -96 98 -45 125
58 205 139 233 233 21 73 8 104 -43 104 -21 -1 -59 -12 -84 -25z"/>
<path d="M2343 1733 c-13 -2 -36 -18 -53 -34 -97 -98 -1 -268 128 -226 93 31
113 185 30 239 -27 18 -74 27 -105 21z"/>
<path d="M3036 1730 c-91 -28 -123 -144 -60 -219 90 -108 259 -3 214 133 -12
36 -61 86 -85 86 -7 0 -19 2 -27 4 -7 2 -26 0 -42 -4z"/>
<path d="M3650 1600 l0 -130 40 0 c57 0 118 27 135 61 8 15 15 50 15 78 0 79
-54 121 -156 121 l-34 0 0 -130z"/>
</g>
</svg>
